<svg xmlns="http://www.w3.org/2000/svg" width="1280" height="640"><rect width="100%" height="100%" fill="#14233B"/><path stroke="#55C3F3" stroke-width="10" d="m40-10-50 50m90-50-90 90m130-90L-10 120M160-10-10 160M200-10-10 200M240-10-10 240M280-10-10 280M320-10-10 320M360-10-10 360M400-10-10 400M440-10-10 440"/><path stroke="#FEFEFE" stroke-width="10" d="m1290 600-50 50m50-90-90 90m90-130-130 130m130-170-170 170m170-210-210 210m210-250-250 250m250-290-290 290m290-330L960 650m330-370L920 650m370-410L880 650"/><text x="50%" y="50%" dominant-baseline="middle" text-anchor="middle" fill="#fff" font-size="96" font-family="Arial" font-weight="bold">cherrilog</text><text x="50%" y="63%" dominant-baseline="middle" text-anchor="middle" fill="#F43B76" font-size="24" font-family="Arial" font-weight="bold">DART PACKAGE</text><rect x="34.3%" y="70%" width="400" height="40" rx="20" ry="20" fill="#F43B76"/><text x="50%" y="73.2%" dominant-baseline="middle" text-anchor="middle" fill="#fff" font-size="20" font-family="Arial">A POWERFUL LOGGING FRAMEWORK</text><svg xmlns="http://www.w3.org/2000/svg" x="160" y="-150" width="1280" height="640" viewBox="0 0 64 64" fill="none"><path d="m11.061 35.949-2.567-2.567A1.75 1.75 0 0 1 8 32.196c0-.2.112-.512.197-.691l2.37-4.938z" fill="#01579B"/><path d="m19.85 27.061-2.567-2.567c-.223-.225-.69-.494-1.086-.494-.34 0-.672.068-.889.197l-4.74 2.37 9.283.494zM14.123 39.01h6.222v-2.666l-4.642-1.482-4.246 1.481z" fill="#40C4FF"/><path d="M10.569 34.567c0 .792.099.987.493 1.383l.395.395h8.888L16 31.408l-5.431-4.84z" fill="#29B6F6"/><path d="M18.468 26.567h-7.9l9.776 9.777h2.666V30.22l-3.16-3.16c-.443-.445-.837-.494-1.382-.494z" fill="#01579B"/><path opacity=".2" d="M11.16 36.048c-.394-.397-.493-.787-.493-1.48v-7.901l-.1-.1v8c.002.694.002.886.594 1.481l.296.297z" fill="#fff"/><path opacity=".2" d="M22.912 30.123v6.122h-2.666l.099.099h2.667v-6.122l-.1-.1z" fill="#263238"/><path opacity=".2" d="M19.85 27.061c-.489-.49-.89-.494-1.48-.494h-7.802l.1.1h7.703c.293 0 1.038-.05 1.48.394z" fill="#fff"/><path opacity=".2" d="M22.912 30.123 19.85 27.06l-2.568-2.567c-.224-.225-.691-.494-1.086-.494-.34 0-.673.068-.889.197l-4.74 2.37-2.37 4.938c-.085.18-.197.491-.197.691 0 .431.19.872.494 1.186l2.366 2.349q.084.102.202.218l.1.1.296.296 2.568 2.567.099.1h6.222v-2.667h2.666v-6.122z" fill="url(#a)"/><defs><radialGradient id="a" cx="0" cy="0" r="1" gradientUnits="userSpaceOnUse" gradientTransform="translate(15.507 31.505)scale(7.50631)"><stop stop-color="#fff" stop-opacity=".1"/><stop offset="1" stop-color="#fff" stop-opacity="0"/></radialGradient></defs></svg></svg>